<?xml version="1.0" standalone="no"?>
<!DOCTYPE svg PUBLIC "-//W3C//DTD SVG 20010904//EN"
 "http://www.w3.org/TR/2001/REC-SVG-20010904/DTD/svg10.dtd">
<svg version="1.0" xmlns="http://www.w3.org/2000/svg"
 width="362.000000pt" height="362.000000pt" viewBox="0 0 362.000000 362.000000"
 preserveAspectRatio="xMidYMid meet">

<g transform="translate(0.000000,362.000000) scale(0.100000,-0.100000)"
fill="#ed6237" stroke="none">
<path d="M0 1810 l0 -1810 1810 0 1810 0 0 1810 0 1810 -1810 0 -1810 0 0
-1810z m1760 1110 l0 -430 -85 0 -85 0 0 430 0 430 85 0 85 0 0 -430z m941
240 c28 -16 52 -68 44 -99 -9 -37 -43 -70 -80 -77 -27 -5 -40 -20 -97 -112
-63 -103 -66 -109 -61 -158 5 -47 3 -52 -27 -77 -41 -35 -89 -36 -127 -3 -24
21 -28 32 -28 75 0 46 -4 56 -57 119 -48 59 -62 70 -93 74 -32 4 -43 -1 -84
-38 -40 -36 -47 -48 -47 -79 0 -30 -7 -44 -32 -66 -57 -51 -129 -34 -152 36
-22 67 38 135 107 122 21 -4 36 4 75 40 39 38 48 52 48 80 0 25 8 43 30 65 28
27 36 30 73 25 59 -8 90 -46 85 -101 -4 -38 0 -47 54 -113 81 -100 87 -99 170
37 57 93 66 113 59 137 -10 38 4 89 31 108 26 17 80 20 109 5z m-1411 -375 l0
-295 -85 0 -85 0 0 295 0 295 85 0 85 0 0 -295z m240 -60 l0 -235 -85 0 -85 0
0 235 0 235 85 0 85 0 0 -235z m-470 -35 l0 -200 -85 0 -85 0 0 200 0 200 85
0 85 0 0 -200z m390 -362 c184 -55 320 -237 320 -428 0 -186 -130 -360 -316
-424 -63 -21 -205 -21 -268 0 -140 48 -242 150 -290 289 -20 61 -21 203 -1
269 47 155 193 282 351 305 66 9 151 5 204 -11z m830 -78 l0 -80 -205 0 -205
0 0 80 0 80 205 0 205 0 0 -80z m190 -230 l0 -80 -300 0 -300 0 0 80 0 80 300
0 300 0 0 -80z m-120 -235 l0 -85 -240 0 -240 0 0 85 0 85 240 0 240 0 0 -85z
m390 -235 l0 -80 -435 0 -435 0 0 80 0 80 435 0 435 0 0 -80z m-2206 -428 l56
-29 0 24 c0 22 3 23 65 23 l65 0 0 -120 0 -120 -50 0 c-45 0 -51 3 -64 29 -26
49 -93 99 -150 111 -107 22 -215 -46 -246 -155 -46 -166 57 -329 208 -328 75
1 121 21 178 78 43 43 48 46 70 35 13 -7 35 -25 49 -40 l26 -27 -50 -50 c-28
-28 -76 -64 -108 -80 -53 -26 -67 -28 -168 -28 -99 0 -116 3 -168 27 -184 86
-258 313 -161 498 65 125 156 178 305 179 76 1 93 -2 143 -27z m486 -128 l0
-146 37 32 c51 45 92 60 166 60 50 0 72 -5 98 -23 58 -38 73 -84 79 -232 l5
-130 43 -3 42 -3 0 -50 0 -49 -155 0 -155 0 0 50 0 50 40 0 40 0 0 100 c0 116
-13 152 -61 169 -40 14 -90 -6 -141 -57 l-38 -36 0 -88 0 -88 40 0 40 0 0 -50
0 -50 -160 0 -160 0 0 50 0 50 50 0 50 0 0 245 0 245 -50 0 -50 0 0 50 0 50
120 0 120 0 0 -146z m1872 4 l3 -63 73 -3 72 -3 0 -49 0 -50 -75 0 -75 0 0
-105 c0 -57 5 -115 11 -128 21 -46 72 -53 137 -18 20 10 24 7 46 -38 28 -55
26 -59 -37 -86 -47 -19 -159 -20 -196 0 -39 20 -78 69 -91 113 -5 20 -10 88
-10 150 l0 112 -50 0 -50 0 0 50 0 50 50 0 50 0 0 65 0 65 70 0 69 0 3 -62z
m-1003 -68 c40 -11 86 -52 108 -94 11 -20 17 -71 21 -157 5 -127 5 -128 30
-131 20 -2 27 -12 37 -46 12 -38 11 -43 -5 -52 -10 -6 -44 -10 -76 -10 -51 0
-60 3 -88 33 l-31 33 -49 -30 c-39 -24 -62 -31 -117 -34 -79 -5 -114 6 -155
49 -22 23 -29 40 -32 86 -5 72 21 117 88 151 40 21 56 23 135 19 50 -2 98 -7
108 -12 13 -6 17 -2 17 17 0 83 -103 106 -249 54 -24 -9 -45 -16 -46 -16 -3 0
-25 86 -25 99 0 8 62 32 115 44 39 9 181 7 214 -3z m731 -95 l0 -105 -60 0
-60 0 0 40 c0 49 -12 51 -66 11 -71 -52 -75 -60 -72 -147 l3 -79 48 -3 47 -3
0 -50 0 -49 -170 0 -170 0 0 50 0 50 50 0 50 0 0 140 0 140 -50 0 -50 0 0 50
0 50 120 0 120 0 0 -40 c0 -45 8 -49 36 -19 36 40 105 68 167 69 l57 0 0 -105z
m783 86 c29 -15 37 -16 37 -5 0 10 15 14 55 14 l55 0 0 -79 0 -79 -32 -5 c-28
-4 -40 2 -75 34 -47 43 -108 64 -146 50 -53 -20 -45 -51 21 -79 26 -11 61 -24
77 -28 47 -11 118 -49 144 -78 18 -19 26 -41 29 -79 4 -47 1 -57 -24 -86 -15
-19 -43 -40 -61 -47 -49 -21 -159 -17 -212 6 -52 24 -51 24 -51 5 0 -11 -12
-15 -50 -15 l-50 0 0 79 c0 73 2 79 23 85 32 8 31 9 73 -25 49 -39 98 -60 145
-62 35 -1 69 16 69 34 0 22 -45 49 -122 73 -134 41 -189 88 -190 164 0 52 27
99 72 123 48 26 162 26 213 0z"/>
<path d="M2635 3090 c-10 -16 16 -43 28 -31 11 11 2 41 -12 41 -5 0 -13 -5
-16 -10z"/>
<path d="M2167 3006 c-8 -21 16 -39 31 -24 8 8 9 15 1 25 -15 17 -25 17 -32
-1z"/>
<path d="M1933 2794 c-7 -19 11 -39 26 -30 16 10 13 33 -4 40 -9 3 -18 -1 -22
-10z"/>
<path d="M2404 2716 c-9 -24 12 -44 28 -28 10 10 8 16 -5 29 -15 15 -17 15
-23 -1z"/>
<path d="M1362 2118 l3 -173 173 -3 c94 -1 172 1 172 6 0 5 -7 33 -16 63 -35
116 -133 219 -248 259 -93 33 -87 44 -84 -152z"/>
<path d="M1725 653 c-31 -8 -55 -34 -55 -58 0 -53 70 -62 155 -20 58 28 69 50
33 64 -32 12 -109 20 -133 14z"/>
</g>
</svg>
